<mxfile host="app.diagrams.net" agent="Mozilla/5.0 (Windows NT 10.0; Win64; x64; rv:128.0) Gecko/20100101 Firefox/128.0" version="26.0.8" pages="8">
  <diagram id="gffcZ1dQoPqI3qWfjrZr" name="Page-1">
    <mxGraphModel dx="2317" dy="2250" grid="1" gridSize="10" guides="1" tooltips="1" connect="1" arrows="1" fold="1" page="1" pageScale="1" pageWidth="1169" pageHeight="827" math="0" shadow="0">
      <root>
        <mxCell id="0" />
        <mxCell id="1" parent="0" />
        <mxCell id="ghvDcs37zBlgiLJjxK2g-1" value="&lt;font data-font-src=&quot;https://fonts.googleapis.com/css?family=vazirmatn&quot; face=&quot;vazirmatn&quot;&gt;ثبت درخواست&lt;/font&gt;" style="swimlane;childLayout=stackLayout;resizeParent=1;resizeParentMax=0;horizontal=1;startSize=20;horizontalStack=0;html=1;align=center;verticalAlign=middle;fontFamily=Helvetica;fontSize=12;fontStyle=1;labelBackgroundColor=none;" parent="1" vertex="1">
          <mxGeometry x="-930" y="-1470" width="650" height="380" as="geometry" />
        </mxCell>
        <mxCell id="ghvDcs37zBlgiLJjxK2g-2" value="client" style="swimlane;startSize=20;horizontal=0;html=1;align=center;verticalAlign=middle;fontFamily=Helvetica;fontSize=12;fontStyle=1;labelBackgroundColor=none;" parent="ghvDcs37zBlgiLJjxK2g-1" vertex="1">
          <mxGeometry y="20" width="650" height="120" as="geometry" />
        </mxCell>
        <mxCell id="ghvDcs37zBlgiLJjxK2g-10" value="addRequest" style="strokeWidth=2;html=1;shape=mxgraph.flowchart.terminator;whiteSpace=wrap;align=center;verticalAlign=middle;fontFamily=Helvetica;fontSize=12;fontStyle=1;labelBackgroundColor=none;" parent="ghvDcs37zBlgiLJjxK2g-2" vertex="1">
          <mxGeometry x="310" y="35" width="100" height="60" as="geometry" />
        </mxCell>
        <mxCell id="ghvDcs37zBlgiLJjxK2g-14" value="" style="ellipse;html=1;shape=endState;align=center;verticalAlign=middle;fontFamily=Helvetica;fontSize=12;fontStyle=1;labelBackgroundColor=none;" parent="ghvDcs37zBlgiLJjxK2g-2" vertex="1">
          <mxGeometry x="530" y="40" width="30" height="30" as="geometry" />
        </mxCell>
        <mxCell id="K-QoYRcNxH8pHZEpHDFH-2" style="edgeStyle=orthogonalEdgeStyle;rounded=0;orthogonalLoop=1;jettySize=auto;html=1;labelBackgroundColor=none;fontColor=default;" edge="1" parent="ghvDcs37zBlgiLJjxK2g-2" source="ghvDcs37zBlgiLJjxK2g-11" target="ghvDcs37zBlgiLJjxK2g-10">
          <mxGeometry relative="1" as="geometry" />
        </mxCell>
        <mxCell id="ghvDcs37zBlgiLJjxK2g-11" value="sendRequest" style="strokeWidth=2;html=1;shape=mxgraph.flowchart.terminator;whiteSpace=wrap;align=center;verticalAlign=middle;fontFamily=Helvetica;fontSize=12;fontStyle=1;labelBackgroundColor=none;" parent="ghvDcs37zBlgiLJjxK2g-2" vertex="1">
          <mxGeometry x="170" y="40" width="100" height="50" as="geometry" />
        </mxCell>
        <mxCell id="ghvDcs37zBlgiLJjxK2g-6" value="" style="ellipse;html=1;shape=startState;align=center;verticalAlign=middle;fontFamily=Helvetica;fontSize=12;fontStyle=1;labelBackgroundColor=none;" parent="ghvDcs37zBlgiLJjxK2g-2" vertex="1">
          <mxGeometry x="70" y="50" width="30" height="30" as="geometry" />
        </mxCell>
        <mxCell id="K-QoYRcNxH8pHZEpHDFH-1" style="edgeStyle=orthogonalEdgeStyle;rounded=0;orthogonalLoop=1;jettySize=auto;html=1;entryX=0;entryY=0.5;entryDx=0;entryDy=0;entryPerimeter=0;labelBackgroundColor=none;fontColor=default;" edge="1" parent="ghvDcs37zBlgiLJjxK2g-2" source="ghvDcs37zBlgiLJjxK2g-6" target="ghvDcs37zBlgiLJjxK2g-11">
          <mxGeometry relative="1" as="geometry" />
        </mxCell>
        <mxCell id="ghvDcs37zBlgiLJjxK2g-3" value="system manager" style="swimlane;startSize=20;horizontal=0;html=1;align=center;verticalAlign=middle;fontFamily=Helvetica;fontSize=12;fontStyle=1;labelBackgroundColor=none;" parent="ghvDcs37zBlgiLJjxK2g-1" vertex="1">
          <mxGeometry y="140" width="650" height="120" as="geometry" />
        </mxCell>
        <mxCell id="ghvDcs37zBlgiLJjxK2g-9" value="savaData" style="strokeWidth=2;html=1;shape=mxgraph.flowchart.terminator;whiteSpace=wrap;align=center;verticalAlign=middle;fontFamily=Helvetica;fontSize=12;fontStyle=1;labelBackgroundColor=none;" parent="ghvDcs37zBlgiLJjxK2g-3" vertex="1">
          <mxGeometry x="310" y="30" width="100" height="60" as="geometry" />
        </mxCell>
        <mxCell id="ghvDcs37zBlgiLJjxK2g-13" value="confirmSubmission" style="strokeWidth=2;html=1;shape=mxgraph.flowchart.terminator;whiteSpace=wrap;align=center;verticalAlign=middle;fontFamily=Helvetica;fontSize=12;fontStyle=1;labelBackgroundColor=none;" parent="ghvDcs37zBlgiLJjxK2g-3" vertex="1">
          <mxGeometry x="470" y="30" width="150" height="60" as="geometry" />
        </mxCell>
        <mxCell id="ghvDcs37zBlgiLJjxK2g-4" value="data handler" style="swimlane;startSize=20;horizontal=0;html=1;align=center;verticalAlign=middle;fontFamily=Helvetica;fontSize=12;fontStyle=1;labelBackgroundColor=none;" parent="ghvDcs37zBlgiLJjxK2g-1" vertex="1">
          <mxGeometry y="260" width="650" height="120" as="geometry" />
        </mxCell>
        <mxCell id="ghvDcs37zBlgiLJjxK2g-8" value="sendSubmissionDetails" style="strokeWidth=2;html=1;shape=mxgraph.flowchart.terminator;whiteSpace=wrap;align=center;verticalAlign=middle;fontFamily=Helvetica;fontSize=12;fontStyle=1;labelBackgroundColor=none;" parent="ghvDcs37zBlgiLJjxK2g-4" vertex="1">
          <mxGeometry x="275" y="20" width="170" height="60" as="geometry" />
        </mxCell>
        <mxCell id="ghvDcs37zBlgiLJjxK2g-17" style="edgeStyle=orthogonalEdgeStyle;rounded=0;orthogonalLoop=1;jettySize=auto;html=1;exitX=0.5;exitY=1;exitDx=0;exitDy=0;exitPerimeter=0;entryX=0.5;entryY=0;entryDx=0;entryDy=0;entryPerimeter=0;fontFamily=Helvetica;fontSize=12;fontColor=default;fontStyle=1;labelBackgroundColor=none;" parent="ghvDcs37zBlgiLJjxK2g-1" source="ghvDcs37zBlgiLJjxK2g-10" target="ghvDcs37zBlgiLJjxK2g-9" edge="1">
          <mxGeometry relative="1" as="geometry" />
        </mxCell>
        <mxCell id="ghvDcs37zBlgiLJjxK2g-18" style="edgeStyle=orthogonalEdgeStyle;rounded=0;orthogonalLoop=1;jettySize=auto;html=1;exitX=0.5;exitY=1;exitDx=0;exitDy=0;exitPerimeter=0;entryX=0.5;entryY=0;entryDx=0;entryDy=0;entryPerimeter=0;fontFamily=Helvetica;fontSize=12;fontColor=default;fontStyle=1;labelBackgroundColor=none;" parent="ghvDcs37zBlgiLJjxK2g-1" source="ghvDcs37zBlgiLJjxK2g-9" target="ghvDcs37zBlgiLJjxK2g-8" edge="1">
          <mxGeometry relative="1" as="geometry" />
        </mxCell>
        <mxCell id="ghvDcs37zBlgiLJjxK2g-19" style="edgeStyle=orthogonalEdgeStyle;rounded=0;orthogonalLoop=1;jettySize=auto;html=1;exitX=1;exitY=0.5;exitDx=0;exitDy=0;exitPerimeter=0;entryX=0.5;entryY=1;entryDx=0;entryDy=0;entryPerimeter=0;fontFamily=Helvetica;fontSize=12;fontColor=default;fontStyle=1;labelBackgroundColor=none;" parent="ghvDcs37zBlgiLJjxK2g-1" source="ghvDcs37zBlgiLJjxK2g-8" target="ghvDcs37zBlgiLJjxK2g-13" edge="1">
          <mxGeometry relative="1" as="geometry">
            <Array as="points">
              <mxPoint x="545" y="310" />
            </Array>
          </mxGeometry>
        </mxCell>
        <mxCell id="o_tfmuF1pn9ORHKJAQcI-4" style="edgeStyle=orthogonalEdgeStyle;rounded=0;orthogonalLoop=1;jettySize=auto;html=1;entryX=0.5;entryY=1;entryDx=0;entryDy=0;labelBackgroundColor=none;fontColor=default;" parent="ghvDcs37zBlgiLJjxK2g-1" source="ghvDcs37zBlgiLJjxK2g-13" target="ghvDcs37zBlgiLJjxK2g-14" edge="1">
          <mxGeometry relative="1" as="geometry" />
        </mxCell>
      </root>
    </mxGraphModel>
  </diagram>
  <diagram id="sD8AGyCequ4FnkmFHmFS" name="Page-2">
    <mxGraphModel dx="1378" dy="1815" grid="1" gridSize="10" guides="1" tooltips="1" connect="1" arrows="1" fold="1" page="1" pageScale="1" pageWidth="850" pageHeight="1100" math="0" shadow="0">
      <root>
        <mxCell id="0" />
        <mxCell id="1" parent="0" />
        <mxCell id="JY180bsoGiRnt1c5j5S--1" value="&lt;font data-font-src=&quot;https://fonts.googleapis.com/css?family=vazirmatn&quot; face=&quot;vazirmatn&quot;&gt;قبول کردن درخواست&lt;/font&gt;" style="swimlane;childLayout=stackLayout;resizeParent=1;resizeParentMax=0;horizontal=1;startSize=20;horizontalStack=0;html=1;align=center;verticalAlign=middle;fontFamily=Helvetica;fontSize=12;fontStyle=1;labelBackgroundColor=none;" parent="1" vertex="1">
          <mxGeometry x="25" y="-1050" width="800" height="380" as="geometry" />
        </mxCell>
        <mxCell id="JY180bsoGiRnt1c5j5S--2" value="driver" style="swimlane;startSize=20;horizontal=0;html=1;align=center;verticalAlign=middle;fontFamily=Helvetica;fontSize=12;fontStyle=1;labelBackgroundColor=none;" parent="JY180bsoGiRnt1c5j5S--1" vertex="1">
          <mxGeometry y="20" width="800" height="120" as="geometry" />
        </mxCell>
        <mxCell id="JY180bsoGiRnt1c5j5S--3" value="" style="ellipse;html=1;shape=startState;align=center;verticalAlign=middle;fontFamily=Helvetica;fontSize=12;fontStyle=1;labelBackgroundColor=none;" parent="JY180bsoGiRnt1c5j5S--2" vertex="1">
          <mxGeometry x="45" y="35" width="30" height="30" as="geometry" />
        </mxCell>
        <mxCell id="JY180bsoGiRnt1c5j5S--4" value="acceptRequest" style="strokeWidth=2;html=1;shape=mxgraph.flowchart.terminator;whiteSpace=wrap;align=center;verticalAlign=middle;fontFamily=Helvetica;fontSize=12;fontStyle=1;labelBackgroundColor=none;" parent="JY180bsoGiRnt1c5j5S--2" vertex="1">
          <mxGeometry x="120" y="20" width="100" height="60" as="geometry" />
        </mxCell>
        <mxCell id="JY180bsoGiRnt1c5j5S--5" value="" style="ellipse;html=1;shape=endState;align=center;verticalAlign=middle;fontFamily=Helvetica;fontSize=12;fontStyle=1;labelBackgroundColor=none;" parent="JY180bsoGiRnt1c5j5S--2" vertex="1">
          <mxGeometry x="710" y="20" width="30" height="30" as="geometry" />
        </mxCell>
        <mxCell id="hkBQKvScml30_BJ9A8zm-1" style="edgeStyle=orthogonalEdgeStyle;rounded=0;orthogonalLoop=1;jettySize=auto;html=1;entryX=0;entryY=0.5;entryDx=0;entryDy=0;entryPerimeter=0;labelBackgroundColor=none;fontColor=default;" parent="JY180bsoGiRnt1c5j5S--2" source="JY180bsoGiRnt1c5j5S--3" target="JY180bsoGiRnt1c5j5S--4" edge="1">
          <mxGeometry relative="1" as="geometry" />
        </mxCell>
        <mxCell id="JY180bsoGiRnt1c5j5S--7" value="system manager" style="swimlane;startSize=20;horizontal=0;html=1;align=center;verticalAlign=middle;fontFamily=Helvetica;fontSize=12;fontStyle=1;labelBackgroundColor=none;" parent="JY180bsoGiRnt1c5j5S--1" vertex="1">
          <mxGeometry y="140" width="800" height="120" as="geometry" />
        </mxCell>
        <mxCell id="JY180bsoGiRnt1c5j5S--8" value="findRequest" style="strokeWidth=2;html=1;shape=mxgraph.flowchart.terminator;whiteSpace=wrap;align=center;verticalAlign=middle;fontFamily=Helvetica;fontSize=12;fontStyle=1;labelBackgroundColor=none;" parent="JY180bsoGiRnt1c5j5S--7" vertex="1">
          <mxGeometry x="120" y="30" width="100" height="60" as="geometry" />
        </mxCell>
        <mxCell id="JY180bsoGiRnt1c5j5S--9" value="uptateRequestStatus" style="strokeWidth=2;html=1;shape=mxgraph.flowchart.terminator;whiteSpace=wrap;align=center;verticalAlign=middle;fontFamily=Helvetica;fontSize=12;fontStyle=1;labelBackgroundColor=none;" parent="JY180bsoGiRnt1c5j5S--7" vertex="1">
          <mxGeometry x="280" y="30" width="150" height="60" as="geometry" />
        </mxCell>
        <mxCell id="JY180bsoGiRnt1c5j5S--10" value="savedata" style="strokeWidth=2;html=1;shape=mxgraph.flowchart.terminator;whiteSpace=wrap;align=center;verticalAlign=middle;fontFamily=Helvetica;fontSize=12;fontStyle=1;labelBackgroundColor=none;" parent="JY180bsoGiRnt1c5j5S--7" vertex="1">
          <mxGeometry x="480" y="30" width="100" height="60" as="geometry" />
        </mxCell>
        <mxCell id="JY180bsoGiRnt1c5j5S--11" value="confirmAcceptance" style="strokeWidth=2;html=1;shape=mxgraph.flowchart.terminator;whiteSpace=wrap;align=center;verticalAlign=middle;fontFamily=Helvetica;fontSize=12;fontStyle=1;labelBackgroundColor=none;" parent="JY180bsoGiRnt1c5j5S--7" vertex="1">
          <mxGeometry x="660" y="30" width="130" height="60" as="geometry" />
        </mxCell>
        <mxCell id="JY180bsoGiRnt1c5j5S--12" style="edgeStyle=orthogonalEdgeStyle;rounded=0;orthogonalLoop=1;jettySize=auto;html=1;exitX=1;exitY=0.5;exitDx=0;exitDy=0;exitPerimeter=0;entryX=0;entryY=0.5;entryDx=0;entryDy=0;entryPerimeter=0;fontFamily=Helvetica;fontSize=12;fontColor=default;fontStyle=1;labelBackgroundColor=none;" parent="JY180bsoGiRnt1c5j5S--7" source="JY180bsoGiRnt1c5j5S--8" target="JY180bsoGiRnt1c5j5S--9" edge="1">
          <mxGeometry relative="1" as="geometry" />
        </mxCell>
        <mxCell id="JY180bsoGiRnt1c5j5S--13" style="edgeStyle=orthogonalEdgeStyle;rounded=0;orthogonalLoop=1;jettySize=auto;html=1;exitX=1;exitY=0.5;exitDx=0;exitDy=0;exitPerimeter=0;entryX=0;entryY=0.5;entryDx=0;entryDy=0;entryPerimeter=0;fontFamily=Helvetica;fontSize=12;fontColor=default;fontStyle=1;labelBackgroundColor=none;" parent="JY180bsoGiRnt1c5j5S--7" source="JY180bsoGiRnt1c5j5S--9" target="JY180bsoGiRnt1c5j5S--10" edge="1">
          <mxGeometry relative="1" as="geometry" />
        </mxCell>
        <mxCell id="JY180bsoGiRnt1c5j5S--14" value="data handler" style="swimlane;startSize=20;horizontal=0;html=1;align=center;verticalAlign=middle;fontFamily=Helvetica;fontSize=12;fontStyle=1;labelBackgroundColor=none;" parent="JY180bsoGiRnt1c5j5S--1" vertex="1">
          <mxGeometry y="260" width="800" height="120" as="geometry" />
        </mxCell>
        <mxCell id="JY180bsoGiRnt1c5j5S--15" value="confirmSubmission" style="strokeWidth=2;html=1;shape=mxgraph.flowchart.terminator;whiteSpace=wrap;align=center;verticalAlign=middle;fontFamily=Helvetica;fontSize=12;fontStyle=1;labelBackgroundColor=none;" parent="JY180bsoGiRnt1c5j5S--14" vertex="1">
          <mxGeometry x="570" y="30" width="140" height="60" as="geometry" />
        </mxCell>
        <mxCell id="JY180bsoGiRnt1c5j5S--16" style="edgeStyle=orthogonalEdgeStyle;rounded=0;orthogonalLoop=1;jettySize=auto;html=1;exitX=0.5;exitY=1;exitDx=0;exitDy=0;exitPerimeter=0;entryX=0.5;entryY=0;entryDx=0;entryDy=0;entryPerimeter=0;fontFamily=Helvetica;fontSize=12;fontColor=default;fontStyle=1;labelBackgroundColor=none;" parent="JY180bsoGiRnt1c5j5S--1" source="JY180bsoGiRnt1c5j5S--4" target="JY180bsoGiRnt1c5j5S--8" edge="1">
          <mxGeometry relative="1" as="geometry" />
        </mxCell>
        <mxCell id="hkBQKvScml30_BJ9A8zm-2" style="edgeStyle=orthogonalEdgeStyle;rounded=0;orthogonalLoop=1;jettySize=auto;html=1;entryX=0;entryY=0.5;entryDx=0;entryDy=0;entryPerimeter=0;labelBackgroundColor=none;fontColor=default;" parent="JY180bsoGiRnt1c5j5S--1" source="JY180bsoGiRnt1c5j5S--10" target="JY180bsoGiRnt1c5j5S--15" edge="1">
          <mxGeometry relative="1" as="geometry" />
        </mxCell>
        <mxCell id="hkBQKvScml30_BJ9A8zm-4" style="edgeStyle=orthogonalEdgeStyle;rounded=0;orthogonalLoop=1;jettySize=auto;html=1;entryX=0.5;entryY=1;entryDx=0;entryDy=0;entryPerimeter=0;labelBackgroundColor=none;fontColor=default;" parent="JY180bsoGiRnt1c5j5S--1" source="JY180bsoGiRnt1c5j5S--15" target="JY180bsoGiRnt1c5j5S--11" edge="1">
          <mxGeometry relative="1" as="geometry">
            <Array as="points">
              <mxPoint x="725" y="320" />
            </Array>
          </mxGeometry>
        </mxCell>
        <mxCell id="hkBQKvScml30_BJ9A8zm-5" style="edgeStyle=orthogonalEdgeStyle;rounded=0;orthogonalLoop=1;jettySize=auto;html=1;entryX=0.5;entryY=1;entryDx=0;entryDy=0;labelBackgroundColor=none;fontColor=default;" parent="JY180bsoGiRnt1c5j5S--1" source="JY180bsoGiRnt1c5j5S--11" target="JY180bsoGiRnt1c5j5S--5" edge="1">
          <mxGeometry relative="1" as="geometry" />
        </mxCell>
      </root>
    </mxGraphModel>
  </diagram>
  <diagram id="ciBE5o9-c1HyMbnIWSqH" name="Page-3">
    <mxGraphModel dx="1531" dy="1894" grid="1" gridSize="10" guides="1" tooltips="1" connect="1" arrows="1" fold="1" page="1" pageScale="1" pageWidth="850" pageHeight="1100" math="0" shadow="0">
      <root>
        <mxCell id="0" />
        <mxCell id="1" parent="0" />
        <mxCell id="BK8q-v_RL83-oVBRfLZH-1" value="&lt;font data-font-src=&quot;https://fonts.googleapis.com/css?family=vazirmatn&quot; face=&quot;vazirmatn&quot;&gt;ثبت وضعیت زمان و پیشرفت&lt;/font&gt;" style="swimlane;childLayout=stackLayout;resizeParent=1;resizeParentMax=0;horizontal=1;startSize=20;horizontalStack=0;html=1;align=center;verticalAlign=middle;fontFamily=Helvetica;fontSize=12;fontStyle=1;labelBackgroundColor=none;" parent="1" vertex="1">
          <mxGeometry x="200" y="-1070" width="480" height="380" as="geometry" />
        </mxCell>
        <mxCell id="BK8q-v_RL83-oVBRfLZH-2" value="client" style="swimlane;startSize=20;horizontal=0;html=1;align=center;verticalAlign=middle;fontFamily=Helvetica;fontSize=12;fontStyle=1;labelBackgroundColor=none;" parent="BK8q-v_RL83-oVBRfLZH-1" vertex="1">
          <mxGeometry y="20" width="480" height="120" as="geometry" />
        </mxCell>
        <mxCell id="Xguct-hCOoW5hQ-CdjfM-1" value="&lt;font style=&quot;font-size: 10px;&quot;&gt;acceptRequest&lt;/font&gt;" style="strokeWidth=2;html=1;shape=mxgraph.flowchart.terminator;whiteSpace=wrap;align=center;verticalAlign=middle;fontFamily=Helvetica;fontSize=12;fontStyle=1;labelBackgroundColor=none;" vertex="1" parent="BK8q-v_RL83-oVBRfLZH-2">
          <mxGeometry x="100" y="30" width="80" height="40" as="geometry" />
        </mxCell>
        <mxCell id="Qp4J0e7rfcI4C28qRicP-3" value="" style="ellipse;html=1;shape=startState;labelBackgroundColor=none;" vertex="1" parent="BK8q-v_RL83-oVBRfLZH-2">
          <mxGeometry x="40" y="35" width="30" height="30" as="geometry" />
        </mxCell>
        <mxCell id="Qp4J0e7rfcI4C28qRicP-5" style="edgeStyle=orthogonalEdgeStyle;rounded=0;orthogonalLoop=1;jettySize=auto;html=1;entryX=0;entryY=0.5;entryDx=0;entryDy=0;entryPerimeter=0;labelBackgroundColor=none;fontColor=default;" edge="1" parent="BK8q-v_RL83-oVBRfLZH-2" source="Qp4J0e7rfcI4C28qRicP-3" target="Xguct-hCOoW5hQ-CdjfM-1">
          <mxGeometry relative="1" as="geometry" />
        </mxCell>
        <mxCell id="yv86OmjYvKuuYdjqwvFo-11" style="edgeStyle=orthogonalEdgeStyle;rounded=0;orthogonalLoop=1;jettySize=auto;html=1;entryX=0.5;entryY=1;entryDx=0;entryDy=0;labelBackgroundColor=none;fontColor=default;" edge="1" parent="BK8q-v_RL83-oVBRfLZH-2" source="yv86OmjYvKuuYdjqwvFo-8" target="yv86OmjYvKuuYdjqwvFo-10">
          <mxGeometry relative="1" as="geometry" />
        </mxCell>
        <mxCell id="yv86OmjYvKuuYdjqwvFo-8" value="&lt;font style=&quot;font-size: 10px;&quot;&gt;confirmAcceptance&lt;/font&gt;" style="strokeWidth=2;html=1;shape=mxgraph.flowchart.terminator;whiteSpace=wrap;align=center;verticalAlign=middle;fontFamily=Helvetica;fontSize=12;fontStyle=1;labelBackgroundColor=none;" vertex="1" parent="BK8q-v_RL83-oVBRfLZH-2">
          <mxGeometry x="330" y="70" width="140" height="35" as="geometry" />
        </mxCell>
        <mxCell id="yv86OmjYvKuuYdjqwvFo-10" value="" style="ellipse;html=1;shape=endState;labelBackgroundColor=none;" vertex="1" parent="BK8q-v_RL83-oVBRfLZH-2">
          <mxGeometry x="385" y="10" width="30" height="30" as="geometry" />
        </mxCell>
        <mxCell id="BK8q-v_RL83-oVBRfLZH-3" value="system manager" style="swimlane;startSize=20;horizontal=0;html=1;align=center;verticalAlign=middle;fontFamily=Helvetica;fontSize=12;fontStyle=1;labelBackgroundColor=none;" parent="BK8q-v_RL83-oVBRfLZH-1" vertex="1">
          <mxGeometry y="140" width="480" height="120" as="geometry" />
        </mxCell>
        <mxCell id="yv86OmjYvKuuYdjqwvFo-4" style="edgeStyle=orthogonalEdgeStyle;rounded=0;orthogonalLoop=1;jettySize=auto;html=1;labelBackgroundColor=none;fontColor=default;" edge="1" parent="BK8q-v_RL83-oVBRfLZH-3" source="yv86OmjYvKuuYdjqwvFo-1" target="yv86OmjYvKuuYdjqwvFo-3">
          <mxGeometry relative="1" as="geometry" />
        </mxCell>
        <mxCell id="yv86OmjYvKuuYdjqwvFo-1" value="validateRequest" style="strokeWidth=2;html=1;shape=mxgraph.flowchart.terminator;whiteSpace=wrap;align=center;verticalAlign=middle;fontFamily=Helvetica;fontSize=12;fontStyle=1;labelBackgroundColor=none;" vertex="1" parent="BK8q-v_RL83-oVBRfLZH-3">
          <mxGeometry x="72.5" y="30" width="135" height="50" as="geometry" />
        </mxCell>
        <mxCell id="yv86OmjYvKuuYdjqwvFo-3" value="updateRequestState" style="strokeWidth=2;html=1;shape=mxgraph.flowchart.terminator;whiteSpace=wrap;align=center;verticalAlign=middle;fontFamily=Helvetica;fontSize=12;fontStyle=1;labelBackgroundColor=none;" vertex="1" parent="BK8q-v_RL83-oVBRfLZH-3">
          <mxGeometry x="230" y="30" width="135" height="50" as="geometry" />
        </mxCell>
        <mxCell id="BK8q-v_RL83-oVBRfLZH-4" value="data handler" style="swimlane;startSize=20;horizontal=0;html=1;align=center;verticalAlign=middle;fontFamily=Helvetica;fontSize=12;fontStyle=1;labelBackgroundColor=none;" parent="BK8q-v_RL83-oVBRfLZH-1" vertex="1">
          <mxGeometry y="260" width="480" height="120" as="geometry" />
        </mxCell>
        <mxCell id="yv86OmjYvKuuYdjqwvFo-6" value="saveData" style="strokeWidth=2;html=1;shape=mxgraph.flowchart.terminator;whiteSpace=wrap;align=center;verticalAlign=middle;fontFamily=Helvetica;fontSize=12;fontStyle=1;labelBackgroundColor=none;" vertex="1" parent="BK8q-v_RL83-oVBRfLZH-4">
          <mxGeometry x="257.5" y="50" width="80" height="40" as="geometry" />
        </mxCell>
        <mxCell id="yv86OmjYvKuuYdjqwvFo-2" style="edgeStyle=orthogonalEdgeStyle;rounded=0;orthogonalLoop=1;jettySize=auto;html=1;labelBackgroundColor=none;fontColor=default;" edge="1" parent="BK8q-v_RL83-oVBRfLZH-1" source="Xguct-hCOoW5hQ-CdjfM-1" target="yv86OmjYvKuuYdjqwvFo-1">
          <mxGeometry relative="1" as="geometry" />
        </mxCell>
        <mxCell id="yv86OmjYvKuuYdjqwvFo-7" style="edgeStyle=orthogonalEdgeStyle;rounded=0;orthogonalLoop=1;jettySize=auto;html=1;labelBackgroundColor=none;fontColor=default;" edge="1" parent="BK8q-v_RL83-oVBRfLZH-1" source="yv86OmjYvKuuYdjqwvFo-3" target="yv86OmjYvKuuYdjqwvFo-6">
          <mxGeometry relative="1" as="geometry" />
        </mxCell>
        <mxCell id="yv86OmjYvKuuYdjqwvFo-9" style="edgeStyle=orthogonalEdgeStyle;rounded=0;orthogonalLoop=1;jettySize=auto;html=1;entryX=0.5;entryY=1;entryDx=0;entryDy=0;entryPerimeter=0;labelBackgroundColor=none;fontColor=default;" edge="1" parent="BK8q-v_RL83-oVBRfLZH-1" source="yv86OmjYvKuuYdjqwvFo-6" target="yv86OmjYvKuuYdjqwvFo-8">
          <mxGeometry relative="1" as="geometry">
            <mxPoint x="420" y="120" as="targetPoint" />
            <Array as="points">
              <mxPoint x="400" y="330" />
            </Array>
          </mxGeometry>
        </mxCell>
      </root>
    </mxGraphModel>
  </diagram>
  <diagram id="H_-8asw0SieHsNr8t3Bs" name="Page-4">
    <mxGraphModel dx="1148" dy="596" grid="1" gridSize="10" guides="1" tooltips="1" connect="1" arrows="1" fold="1" page="1" pageScale="1" pageWidth="850" pageHeight="1100" math="0" shadow="0">
      <root>
        <mxCell id="0" />
        <mxCell id="1" parent="0" />
        <mxCell id="P636lowA6W5pbimI4dNd-1" value="&lt;font data-font-src=&quot;https://fonts.googleapis.com/css?family=vazirmatn&quot; face=&quot;vazirmatn&quot;&gt;انتخاب مسئول&lt;/font&gt;" style="swimlane;childLayout=stackLayout;resizeParent=1;resizeParentMax=0;startSize=20;html=1;align=center;verticalAlign=middle;fontFamily=Helvetica;fontSize=12;fontStyle=1;labelBackgroundColor=none;" parent="1" vertex="1">
          <mxGeometry x="226.00000000000045" y="50" width="397.49999999999955" height="480" as="geometry" />
        </mxCell>
        <mxCell id="P636lowA6W5pbimI4dNd-2" value="admin" style="swimlane;startSize=20;html=1;align=center;verticalAlign=middle;fontFamily=Helvetica;fontSize=12;fontStyle=1;labelBackgroundColor=none;" parent="P636lowA6W5pbimI4dNd-1" vertex="1">
          <mxGeometry y="20" width="144.99999999999955" height="460" as="geometry" />
        </mxCell>
        <mxCell id="P636lowA6W5pbimI4dNd-3" value="" style="ellipse;html=1;shape=startState;align=center;verticalAlign=middle;fontFamily=Helvetica;fontSize=12;fontStyle=1;labelBackgroundColor=none;" parent="P636lowA6W5pbimI4dNd-2" vertex="1">
          <mxGeometry x="44.999999999999545" y="35" width="30" height="30" as="geometry" />
        </mxCell>
        <mxCell id="P636lowA6W5pbimI4dNd-5" value="SetRespondent" style="strokeWidth=2;html=1;shape=mxgraph.flowchart.terminator;whiteSpace=wrap;align=center;verticalAlign=middle;fontFamily=Helvetica;fontSize=12;fontStyle=1;labelBackgroundColor=none;" parent="P636lowA6W5pbimI4dNd-2" vertex="1">
          <mxGeometry x="9.999999999999545" y="120" width="100" height="60" as="geometry" />
        </mxCell>
        <mxCell id="fmq9MI-dUPpZvBlffB-7-1" style="edgeStyle=orthogonalEdgeStyle;rounded=0;orthogonalLoop=1;jettySize=auto;html=1;entryX=0.5;entryY=1;entryDx=0;entryDy=0;labelBackgroundColor=none;fontColor=default;" edge="1" parent="P636lowA6W5pbimI4dNd-2" source="P636lowA6W5pbimI4dNd-6" target="P636lowA6W5pbimI4dNd-7">
          <mxGeometry relative="1" as="geometry" />
        </mxCell>
        <mxCell id="P636lowA6W5pbimI4dNd-6" value="confirm Driver assignment" style="strokeWidth=2;html=1;shape=mxgraph.flowchart.terminator;whiteSpace=wrap;align=center;verticalAlign=middle;fontFamily=Helvetica;fontSize=12;fontStyle=1;labelBackgroundColor=none;" parent="P636lowA6W5pbimI4dNd-2" vertex="1">
          <mxGeometry x="9.999999999999545" y="290" width="110" height="40" as="geometry" />
        </mxCell>
        <mxCell id="P636lowA6W5pbimI4dNd-7" value="" style="ellipse;html=1;shape=endState;align=center;verticalAlign=middle;fontFamily=Helvetica;fontSize=12;fontStyle=1;labelBackgroundColor=none;" parent="P636lowA6W5pbimI4dNd-2" vertex="1">
          <mxGeometry x="50" y="215" width="30" height="30" as="geometry" />
        </mxCell>
        <mxCell id="P636lowA6W5pbimI4dNd-20" style="edgeStyle=orthogonalEdgeStyle;rounded=0;orthogonalLoop=1;jettySize=auto;html=1;entryX=0.5;entryY=0;entryDx=0;entryDy=0;entryPerimeter=0;labelBackgroundColor=none;fontColor=default;" parent="P636lowA6W5pbimI4dNd-2" source="P636lowA6W5pbimI4dNd-3" target="P636lowA6W5pbimI4dNd-5" edge="1">
          <mxGeometry relative="1" as="geometry" />
        </mxCell>
        <mxCell id="P636lowA6W5pbimI4dNd-9" value="system manager" style="swimlane;startSize=20;html=1;align=center;verticalAlign=middle;fontFamily=Helvetica;fontSize=12;fontStyle=1;labelBackgroundColor=none;" parent="P636lowA6W5pbimI4dNd-1" vertex="1">
          <mxGeometry x="144.99999999999955" y="20" width="122.5" height="460" as="geometry" />
        </mxCell>
        <mxCell id="P636lowA6W5pbimI4dNd-21" style="edgeStyle=orthogonalEdgeStyle;rounded=0;orthogonalLoop=1;jettySize=auto;html=1;labelBackgroundColor=none;fontColor=default;" parent="P636lowA6W5pbimI4dNd-9" source="P636lowA6W5pbimI4dNd-11" target="P636lowA6W5pbimI4dNd-12" edge="1">
          <mxGeometry relative="1" as="geometry" />
        </mxCell>
        <mxCell id="P636lowA6W5pbimI4dNd-11" value="validateRequest andDriver" style="strokeWidth=2;html=1;shape=mxgraph.flowchart.terminator;whiteSpace=wrap;align=center;verticalAlign=middle;fontFamily=Helvetica;fontSize=12;fontStyle=1;labelBackgroundColor=none;" parent="P636lowA6W5pbimI4dNd-9" vertex="1">
          <mxGeometry x="8.75" y="125" width="110" height="50" as="geometry" />
        </mxCell>
        <mxCell id="P636lowA6W5pbimI4dNd-12" value="assignDriver" style="strokeWidth=2;html=1;shape=mxgraph.flowchart.terminator;whiteSpace=wrap;align=center;verticalAlign=middle;fontFamily=Helvetica;fontSize=12;fontStyle=1;labelBackgroundColor=none;" parent="P636lowA6W5pbimI4dNd-9" vertex="1">
          <mxGeometry x="16.25" y="260" width="95" height="40" as="geometry" />
        </mxCell>
        <mxCell id="P636lowA6W5pbimI4dNd-15" value="DATAHANDLER" style="swimlane;startSize=20;html=1;align=center;verticalAlign=middle;fontFamily=Helvetica;fontSize=12;fontStyle=1;labelBackgroundColor=none;" parent="P636lowA6W5pbimI4dNd-1" vertex="1">
          <mxGeometry x="267.49999999999955" y="20" width="130" height="460" as="geometry" />
        </mxCell>
        <mxCell id="P636lowA6W5pbimI4dNd-13" value="saveData" style="strokeWidth=2;html=1;shape=mxgraph.flowchart.terminator;whiteSpace=wrap;align=center;verticalAlign=middle;fontFamily=Helvetica;fontSize=12;fontStyle=1;labelBackgroundColor=none;" parent="P636lowA6W5pbimI4dNd-15" vertex="1">
          <mxGeometry x="13.75" y="360" width="102.5" height="24" as="geometry" />
        </mxCell>
        <mxCell id="P636lowA6W5pbimI4dNd-17" style="edgeStyle=orthogonalEdgeStyle;rounded=0;orthogonalLoop=1;jettySize=auto;html=1;exitX=1;exitY=0.5;exitDx=0;exitDy=0;exitPerimeter=0;entryX=0;entryY=0.5;entryDx=0;entryDy=0;entryPerimeter=0;fontFamily=Helvetica;fontSize=12;fontColor=default;fontStyle=1;labelBackgroundColor=none;" parent="P636lowA6W5pbimI4dNd-1" source="P636lowA6W5pbimI4dNd-5" target="P636lowA6W5pbimI4dNd-11" edge="1">
          <mxGeometry relative="1" as="geometry" />
        </mxCell>
        <mxCell id="fmq9MI-dUPpZvBlffB-7-2" style="edgeStyle=orthogonalEdgeStyle;rounded=0;orthogonalLoop=1;jettySize=auto;html=1;entryX=0.5;entryY=1;entryDx=0;entryDy=0;entryPerimeter=0;labelBackgroundColor=none;fontColor=default;" edge="1" parent="P636lowA6W5pbimI4dNd-1" source="P636lowA6W5pbimI4dNd-13" target="P636lowA6W5pbimI4dNd-6">
          <mxGeometry relative="1" as="geometry" />
        </mxCell>
        <mxCell id="fmq9MI-dUPpZvBlffB-7-4" style="edgeStyle=orthogonalEdgeStyle;rounded=0;orthogonalLoop=1;jettySize=auto;html=1;labelBackgroundColor=none;fontColor=default;" edge="1" parent="P636lowA6W5pbimI4dNd-1" source="P636lowA6W5pbimI4dNd-12" target="P636lowA6W5pbimI4dNd-13">
          <mxGeometry relative="1" as="geometry" />
        </mxCell>
      </root>
    </mxGraphModel>
  </diagram>
  <diagram id="RlW6BLWlbiXXkJc7lcPs" name="Page-5">
    <mxGraphModel dx="950" dy="493" grid="1" gridSize="10" guides="1" tooltips="1" connect="1" arrows="1" fold="1" page="1" pageScale="1" pageWidth="850" pageHeight="1100" math="0" shadow="0">
      <root>
        <mxCell id="0" />
        <mxCell id="1" parent="0" />
        <mxCell id="qp4IdnKbzA9KKlbylyxD-1" value="&lt;font data-font-src=&quot;https://fonts.googleapis.com/css?family=vazirmatn&quot; face=&quot;vazirmatn&quot;&gt;حذف یک درخواست&lt;/font&gt;" style="swimlane;childLayout=stackLayout;resizeParent=1;resizeParentMax=0;startSize=20;html=1;align=center;verticalAlign=middle;fontFamily=Helvetica;fontSize=12;fontStyle=1;labelBackgroundColor=none;" parent="1" vertex="1">
          <mxGeometry x="40" y="30" width="380" height="480" as="geometry" />
        </mxCell>
        <mxCell id="qp4IdnKbzA9KKlbylyxD-2" value="admin" style="swimlane;startSize=20;html=1;align=center;verticalAlign=middle;fontFamily=Helvetica;fontSize=12;fontStyle=1;labelBackgroundColor=none;" parent="qp4IdnKbzA9KKlbylyxD-1" vertex="1">
          <mxGeometry y="20" width="135" height="460" as="geometry" />
        </mxCell>
        <mxCell id="qp4IdnKbzA9KKlbylyxD-3" value="removeRequest" style="strokeWidth=2;html=1;shape=mxgraph.flowchart.terminator;whiteSpace=wrap;align=center;verticalAlign=middle;fontFamily=Helvetica;fontSize=12;fontStyle=1;labelBackgroundColor=none;" parent="qp4IdnKbzA9KKlbylyxD-2" vertex="1">
          <mxGeometry x="15" y="90" width="95" height="40" as="geometry" />
        </mxCell>
        <mxCell id="qp4IdnKbzA9KKlbylyxD-4" value="" style="ellipse;html=1;shape=startState;align=center;verticalAlign=middle;fontFamily=Helvetica;fontSize=12;fontStyle=1;labelBackgroundColor=none;" parent="qp4IdnKbzA9KKlbylyxD-2" vertex="1">
          <mxGeometry x="47.5" y="30" width="30" height="30" as="geometry" />
        </mxCell>
        <mxCell id="qp4IdnKbzA9KKlbylyxD-6" value="" style="ellipse;html=1;shape=endState;align=center;verticalAlign=middle;fontFamily=Helvetica;fontSize=12;fontStyle=1;labelBackgroundColor=none;" parent="qp4IdnKbzA9KKlbylyxD-2" vertex="1">
          <mxGeometry x="47.5" y="390" width="30" height="30" as="geometry" />
        </mxCell>
        <mxCell id="qp4IdnKbzA9KKlbylyxD-18" style="edgeStyle=orthogonalEdgeStyle;rounded=0;orthogonalLoop=1;jettySize=auto;html=1;entryX=0.5;entryY=0;entryDx=0;entryDy=0;entryPerimeter=0;labelBackgroundColor=none;fontColor=default;" parent="qp4IdnKbzA9KKlbylyxD-2" source="qp4IdnKbzA9KKlbylyxD-4" target="qp4IdnKbzA9KKlbylyxD-3" edge="1">
          <mxGeometry relative="1" as="geometry" />
        </mxCell>
        <mxCell id="qp4IdnKbzA9KKlbylyxD-7" value="systemManager" style="swimlane;startSize=20;html=1;align=center;verticalAlign=middle;fontFamily=Helvetica;fontSize=12;fontStyle=1;labelBackgroundColor=none;" parent="qp4IdnKbzA9KKlbylyxD-1" vertex="1">
          <mxGeometry x="135" y="20" width="125" height="460" as="geometry" />
        </mxCell>
        <mxCell id="qp4IdnKbzA9KKlbylyxD-8" value="&lt;font style=&quot;font-size: 10px;&quot;&gt;writeRequestExists&lt;/font&gt;" style="strokeWidth=2;html=1;shape=mxgraph.flowchart.terminator;whiteSpace=wrap;align=center;verticalAlign=middle;fontFamily=Helvetica;fontSize=12;fontStyle=1;labelBackgroundColor=none;" parent="qp4IdnKbzA9KKlbylyxD-7" vertex="1">
          <mxGeometry x="5" y="60" width="115" height="40" as="geometry" />
        </mxCell>
        <mxCell id="qp4IdnKbzA9KKlbylyxD-9" value="deleteRequest" style="strokeWidth=2;html=1;shape=mxgraph.flowchart.terminator;whiteSpace=wrap;align=center;verticalAlign=middle;fontFamily=Helvetica;fontSize=12;fontStyle=1;labelBackgroundColor=none;" parent="qp4IdnKbzA9KKlbylyxD-7" vertex="1">
          <mxGeometry x="12.5" y="150" width="100" height="60" as="geometry" />
        </mxCell>
        <mxCell id="qp4IdnKbzA9KKlbylyxD-10" style="edgeStyle=orthogonalEdgeStyle;rounded=0;orthogonalLoop=1;jettySize=auto;html=1;exitX=0.5;exitY=1;exitDx=0;exitDy=0;exitPerimeter=0;entryX=0.5;entryY=0;entryDx=0;entryDy=0;entryPerimeter=0;fontFamily=Helvetica;fontSize=12;fontColor=default;fontStyle=1;labelBackgroundColor=none;" parent="qp4IdnKbzA9KKlbylyxD-7" source="qp4IdnKbzA9KKlbylyxD-8" target="qp4IdnKbzA9KKlbylyxD-9" edge="1">
          <mxGeometry relative="1" as="geometry" />
        </mxCell>
        <mxCell id="qp4IdnKbzA9KKlbylyxD-11" value="&lt;font style=&quot;font-size: 9px;&quot;&gt;confirmRequestRemoval&lt;/font&gt;" style="strokeWidth=2;html=1;shape=mxgraph.flowchart.terminator;whiteSpace=wrap;align=center;verticalAlign=middle;fontFamily=Helvetica;fontSize=12;fontStyle=1;labelBackgroundColor=none;" parent="qp4IdnKbzA9KKlbylyxD-7" vertex="1">
          <mxGeometry y="330" width="120" height="30" as="geometry" />
        </mxCell>
        <mxCell id="qp4IdnKbzA9KKlbylyxD-12" value="DataHandler" style="swimlane;startSize=20;html=1;align=center;verticalAlign=middle;fontFamily=Helvetica;fontSize=12;fontStyle=1;labelBackgroundColor=none;" parent="qp4IdnKbzA9KKlbylyxD-1" vertex="1">
          <mxGeometry x="260" y="20" width="120" height="460" as="geometry" />
        </mxCell>
        <mxCell id="qp4IdnKbzA9KKlbylyxD-13" value="confirmDeletion" style="strokeWidth=2;html=1;shape=mxgraph.flowchart.terminator;whiteSpace=wrap;align=center;verticalAlign=middle;fontFamily=Helvetica;fontSize=12;fontStyle=1;labelBackgroundColor=none;" parent="qp4IdnKbzA9KKlbylyxD-12" vertex="1">
          <mxGeometry x="10" y="220" width="100" height="60" as="geometry" />
        </mxCell>
        <mxCell id="qp4IdnKbzA9KKlbylyxD-16" style="edgeStyle=orthogonalEdgeStyle;rounded=0;orthogonalLoop=1;jettySize=auto;html=1;exitX=0.5;exitY=1;exitDx=0;exitDy=0;exitPerimeter=0;entryX=1;entryY=0.5;entryDx=0;entryDy=0;entryPerimeter=0;fontFamily=Helvetica;fontSize=12;fontColor=default;fontStyle=1;labelBackgroundColor=none;" parent="qp4IdnKbzA9KKlbylyxD-1" source="qp4IdnKbzA9KKlbylyxD-13" target="qp4IdnKbzA9KKlbylyxD-11" edge="1">
          <mxGeometry relative="1" as="geometry" />
        </mxCell>
        <mxCell id="qp4IdnKbzA9KKlbylyxD-19" style="edgeStyle=orthogonalEdgeStyle;rounded=0;orthogonalLoop=1;jettySize=auto;html=1;entryX=0.5;entryY=0;entryDx=0;entryDy=0;entryPerimeter=0;labelBackgroundColor=none;fontColor=default;" parent="qp4IdnKbzA9KKlbylyxD-1" source="qp4IdnKbzA9KKlbylyxD-9" target="qp4IdnKbzA9KKlbylyxD-13" edge="1">
          <mxGeometry relative="1" as="geometry" />
        </mxCell>
        <mxCell id="qp4IdnKbzA9KKlbylyxD-20" style="edgeStyle=orthogonalEdgeStyle;rounded=0;orthogonalLoop=1;jettySize=auto;html=1;entryX=0.5;entryY=0;entryDx=0;entryDy=0;labelBackgroundColor=none;fontColor=default;" parent="qp4IdnKbzA9KKlbylyxD-1" source="qp4IdnKbzA9KKlbylyxD-11" target="qp4IdnKbzA9KKlbylyxD-6" edge="1">
          <mxGeometry relative="1" as="geometry" />
        </mxCell>
        <mxCell id="9O-XBpIQuo3nSH1qiQ7H-1" style="edgeStyle=orthogonalEdgeStyle;rounded=0;orthogonalLoop=1;jettySize=auto;html=1;entryX=0;entryY=0.5;entryDx=0;entryDy=0;entryPerimeter=0;" edge="1" parent="qp4IdnKbzA9KKlbylyxD-1" source="qp4IdnKbzA9KKlbylyxD-3" target="qp4IdnKbzA9KKlbylyxD-8">
          <mxGeometry relative="1" as="geometry">
            <Array as="points">
              <mxPoint x="120" y="130" />
              <mxPoint x="120" y="100" />
            </Array>
          </mxGeometry>
        </mxCell>
      </root>
    </mxGraphModel>
  </diagram>
  <diagram id="pIb4m5nFP62o1E8s4zks" name="Page-6">
    <mxGraphModel dx="1378" dy="715" grid="1" gridSize="10" guides="1" tooltips="1" connect="1" arrows="1" fold="1" page="1" pageScale="1" pageWidth="850" pageHeight="1100" math="0" shadow="0">
      <root>
        <mxCell id="0" />
        <mxCell id="1" parent="0" />
        <mxCell id="YxT-XgXZY6XpbuKQufUc-1" value="&lt;font data-font-src=&quot;https://fonts.googleapis.com/css?family=vazirmatn&quot; face=&quot;vazirmatn&quot;&gt;گروهبندی درخواست ها&lt;/font&gt;" style="swimlane;childLayout=stackLayout;resizeParent=1;resizeParentMax=0;horizontal=0;startSize=20;horizontalStack=0;html=1;align=center;verticalAlign=middle;fontFamily=Helvetica;fontSize=12;fontStyle=1;labelBackgroundColor=none;" parent="1" vertex="1">
          <mxGeometry x="70" y="60" width="710" height="360" as="geometry">
            <mxRectangle x="70" y="60" width="40" height="120" as="alternateBounds" />
          </mxGeometry>
        </mxCell>
        <mxCell id="YxT-XgXZY6XpbuKQufUc-2" value="admin" style="swimlane;startSize=20;horizontal=0;html=1;align=center;verticalAlign=middle;fontFamily=Helvetica;fontSize=12;fontStyle=1;labelBackgroundColor=none;" parent="YxT-XgXZY6XpbuKQufUc-1" vertex="1">
          <mxGeometry x="20" width="690" height="120" as="geometry" />
        </mxCell>
        <mxCell id="YxT-XgXZY6XpbuKQufUc-3" value="" style="ellipse;html=1;shape=startState;align=center;verticalAlign=middle;fontFamily=Helvetica;fontSize=12;fontStyle=1;labelBackgroundColor=none;" parent="YxT-XgXZY6XpbuKQufUc-2" vertex="1">
          <mxGeometry x="20" y="45" width="30" height="30" as="geometry" />
        </mxCell>
        <mxCell id="YxT-XgXZY6XpbuKQufUc-5" value="groupRequest" style="strokeWidth=2;html=1;shape=mxgraph.flowchart.terminator;whiteSpace=wrap;align=center;verticalAlign=middle;fontFamily=Helvetica;fontSize=12;fontStyle=1;labelBackgroundColor=none;" parent="YxT-XgXZY6XpbuKQufUc-2" vertex="1">
          <mxGeometry x="70" y="30" width="100" height="60" as="geometry" />
        </mxCell>
        <mxCell id="YxT-XgXZY6XpbuKQufUc-6" value="" style="ellipse;html=1;shape=endState;align=center;verticalAlign=middle;fontFamily=Helvetica;fontSize=12;fontStyle=1;labelBackgroundColor=none;" parent="YxT-XgXZY6XpbuKQufUc-2" vertex="1">
          <mxGeometry x="570" y="30" width="30" height="30" as="geometry" />
        </mxCell>
        <mxCell id="YxT-XgXZY6XpbuKQufUc-21" style="edgeStyle=orthogonalEdgeStyle;rounded=0;orthogonalLoop=1;jettySize=auto;html=1;entryX=0;entryY=0.5;entryDx=0;entryDy=0;entryPerimeter=0;labelBackgroundColor=none;fontColor=default;" parent="YxT-XgXZY6XpbuKQufUc-2" source="YxT-XgXZY6XpbuKQufUc-3" target="YxT-XgXZY6XpbuKQufUc-5" edge="1">
          <mxGeometry relative="1" as="geometry">
            <Array as="points">
              <mxPoint x="55" y="60" />
            </Array>
          </mxGeometry>
        </mxCell>
        <mxCell id="YxT-XgXZY6XpbuKQufUc-7" value="system manager" style="swimlane;startSize=20;horizontal=0;html=1;align=center;verticalAlign=middle;fontFamily=Helvetica;fontSize=12;fontStyle=1;labelBackgroundColor=none;" parent="YxT-XgXZY6XpbuKQufUc-1" vertex="1">
          <mxGeometry x="20" y="120" width="690" height="120" as="geometry" />
        </mxCell>
        <mxCell id="YxT-XgXZY6XpbuKQufUc-8" value="validateRequest" style="strokeWidth=2;html=1;shape=mxgraph.flowchart.terminator;whiteSpace=wrap;align=center;verticalAlign=middle;fontFamily=Helvetica;fontSize=12;fontStyle=1;labelBackgroundColor=none;" parent="YxT-XgXZY6XpbuKQufUc-7" vertex="1">
          <mxGeometry x="70" y="30" width="100" height="60" as="geometry" />
        </mxCell>
        <mxCell id="YxT-XgXZY6XpbuKQufUc-9" value="updateGroup" style="strokeWidth=2;html=1;shape=mxgraph.flowchart.terminator;whiteSpace=wrap;align=center;verticalAlign=middle;fontFamily=Helvetica;fontSize=12;fontStyle=1;labelBackgroundColor=none;" parent="YxT-XgXZY6XpbuKQufUc-7" vertex="1">
          <mxGeometry x="200" y="30" width="100" height="60" as="geometry" />
        </mxCell>
        <mxCell id="YxT-XgXZY6XpbuKQufUc-11" value="confirmGrouping" style="strokeWidth=2;html=1;shape=mxgraph.flowchart.terminator;whiteSpace=wrap;align=center;verticalAlign=middle;fontFamily=Helvetica;fontSize=12;fontStyle=1;labelBackgroundColor=none;" parent="YxT-XgXZY6XpbuKQufUc-7" vertex="1">
          <mxGeometry x="520" y="40" width="130" height="40" as="geometry" />
        </mxCell>
        <mxCell id="YxT-XgXZY6XpbuKQufUc-12" style="edgeStyle=orthogonalEdgeStyle;rounded=0;orthogonalLoop=1;jettySize=auto;html=1;exitX=1;exitY=0.5;exitDx=0;exitDy=0;exitPerimeter=0;entryX=0;entryY=0.5;entryDx=0;entryDy=0;entryPerimeter=0;fontFamily=Helvetica;fontSize=12;fontColor=default;fontStyle=1;labelBackgroundColor=none;" parent="YxT-XgXZY6XpbuKQufUc-7" source="YxT-XgXZY6XpbuKQufUc-8" target="YxT-XgXZY6XpbuKQufUc-9" edge="1">
          <mxGeometry relative="1" as="geometry" />
        </mxCell>
        <mxCell id="YxT-XgXZY6XpbuKQufUc-14" value="data handler" style="swimlane;startSize=20;horizontal=0;html=1;align=center;verticalAlign=middle;fontFamily=Helvetica;fontSize=12;fontStyle=1;labelBackgroundColor=none;" parent="YxT-XgXZY6XpbuKQufUc-1" vertex="1">
          <mxGeometry x="20" y="240" width="690" height="120" as="geometry" />
        </mxCell>
        <mxCell id="YxT-XgXZY6XpbuKQufUc-10" value="savaData" style="strokeWidth=2;html=1;shape=mxgraph.flowchart.terminator;whiteSpace=wrap;align=center;verticalAlign=middle;fontFamily=Helvetica;fontSize=12;fontStyle=1;labelBackgroundColor=none;" parent="YxT-XgXZY6XpbuKQufUc-14" vertex="1">
          <mxGeometry x="350" y="40" width="100" height="60" as="geometry" />
        </mxCell>
        <mxCell id="YxT-XgXZY6XpbuKQufUc-23" style="edgeStyle=orthogonalEdgeStyle;rounded=0;orthogonalLoop=1;jettySize=auto;html=1;entryX=0.5;entryY=1;entryDx=0;entryDy=0;labelBackgroundColor=none;fontColor=default;" parent="YxT-XgXZY6XpbuKQufUc-1" source="YxT-XgXZY6XpbuKQufUc-11" target="YxT-XgXZY6XpbuKQufUc-6" edge="1">
          <mxGeometry relative="1" as="geometry" />
        </mxCell>
        <mxCell id="YxT-XgXZY6XpbuKQufUc-24" style="edgeStyle=orthogonalEdgeStyle;rounded=0;orthogonalLoop=1;jettySize=auto;html=1;entryX=0;entryY=0.5;entryDx=0;entryDy=0;entryPerimeter=0;labelBackgroundColor=none;fontColor=default;" parent="YxT-XgXZY6XpbuKQufUc-1" source="YxT-XgXZY6XpbuKQufUc-10" target="YxT-XgXZY6XpbuKQufUc-11" edge="1">
          <mxGeometry relative="1" as="geometry" />
        </mxCell>
        <mxCell id="YxT-XgXZY6XpbuKQufUc-25" style="edgeStyle=orthogonalEdgeStyle;rounded=0;orthogonalLoop=1;jettySize=auto;html=1;entryX=0;entryY=0.5;entryDx=0;entryDy=0;entryPerimeter=0;labelBackgroundColor=none;fontColor=default;" parent="YxT-XgXZY6XpbuKQufUc-1" source="YxT-XgXZY6XpbuKQufUc-9" target="YxT-XgXZY6XpbuKQufUc-10" edge="1">
          <mxGeometry relative="1" as="geometry" />
        </mxCell>
        <mxCell id="Tq9LLW-iUoswOi4cH1y6-1" style="edgeStyle=orthogonalEdgeStyle;rounded=0;orthogonalLoop=1;jettySize=auto;html=1;" edge="1" parent="YxT-XgXZY6XpbuKQufUc-1" source="YxT-XgXZY6XpbuKQufUc-5" target="YxT-XgXZY6XpbuKQufUc-8">
          <mxGeometry relative="1" as="geometry" />
        </mxCell>
      </root>
    </mxGraphModel>
  </diagram>
  <diagram id="6TYsY6MNRJJMFxpymrDP" name="Page-7">
    <mxGraphModel dx="1378" dy="-385" grid="1" gridSize="10" guides="1" tooltips="1" connect="1" arrows="1" fold="1" page="1" pageScale="1" pageWidth="850" pageHeight="1100" math="0" shadow="0">
      <root>
        <mxCell id="0" />
        <mxCell id="1" parent="0" />
        <mxCell id="U8FCyloAR51hrHltptfH-1" value="&lt;font data-font-src=&quot;https://fonts.googleapis.com/css?family=vazirmatn&quot; face=&quot;vazirmatn&quot;&gt;جستجو در لیست درخواست ها&lt;/font&gt;" style="swimlane;childLayout=stackLayout;resizeParent=1;resizeParentMax=0;horizontal=1;startSize=20;horizontalStack=0;html=1;align=center;verticalAlign=middle;fontFamily=Helvetica;fontSize=12;fontStyle=1;labelBackgroundColor=none;" parent="1" vertex="1">
          <mxGeometry x="210" y="1150" width="470" height="380" as="geometry" />
        </mxCell>
        <mxCell id="U8FCyloAR51hrHltptfH-2" value="Admin" style="swimlane;startSize=20;horizontal=0;html=1;align=center;verticalAlign=middle;fontFamily=Helvetica;fontSize=12;fontStyle=1;labelBackgroundColor=none;" parent="U8FCyloAR51hrHltptfH-1" vertex="1">
          <mxGeometry y="20" width="470" height="120" as="geometry" />
        </mxCell>
        <mxCell id="U8FCyloAR51hrHltptfH-3" value="" style="ellipse;html=1;shape=startState;align=center;verticalAlign=middle;fontFamily=Helvetica;fontSize=12;fontStyle=1;labelBackgroundColor=none;" parent="U8FCyloAR51hrHltptfH-2" vertex="1">
          <mxGeometry x="40" y="45" width="30" height="30" as="geometry" />
        </mxCell>
        <mxCell id="U8FCyloAR51hrHltptfH-5" value="searchInRequest" style="strokeWidth=2;html=1;shape=mxgraph.flowchart.terminator;whiteSpace=wrap;align=center;verticalAlign=middle;fontFamily=Helvetica;fontSize=12;fontStyle=1;labelBackgroundColor=none;" parent="U8FCyloAR51hrHltptfH-2" vertex="1">
          <mxGeometry x="92.5" y="30" width="125" height="60" as="geometry" />
        </mxCell>
        <mxCell id="U8FCyloAR51hrHltptfH-6" value="" style="ellipse;html=1;shape=endState;align=center;verticalAlign=middle;fontFamily=Helvetica;fontSize=12;fontStyle=1;labelBackgroundColor=none;" parent="U8FCyloAR51hrHltptfH-2" vertex="1">
          <mxGeometry x="355" y="45" width="30" height="30" as="geometry" />
        </mxCell>
        <mxCell id="MdqGygTj4dl-tAXQV5Xk-2" style="edgeStyle=orthogonalEdgeStyle;rounded=0;orthogonalLoop=1;jettySize=auto;html=1;entryX=0;entryY=0.5;entryDx=0;entryDy=0;entryPerimeter=0;labelBackgroundColor=none;fontColor=default;" edge="1" parent="U8FCyloAR51hrHltptfH-2" source="U8FCyloAR51hrHltptfH-3" target="U8FCyloAR51hrHltptfH-5">
          <mxGeometry relative="1" as="geometry" />
        </mxCell>
        <mxCell id="U8FCyloAR51hrHltptfH-7" value="system manager" style="swimlane;startSize=20;horizontal=0;html=1;align=center;verticalAlign=middle;fontFamily=Helvetica;fontSize=12;fontStyle=1;labelBackgroundColor=none;" parent="U8FCyloAR51hrHltptfH-1" vertex="1">
          <mxGeometry y="140" width="470" height="120" as="geometry" />
        </mxCell>
        <mxCell id="U8FCyloAR51hrHltptfH-8" value="fetchRequests" style="strokeWidth=2;html=1;shape=mxgraph.flowchart.terminator;whiteSpace=wrap;align=center;verticalAlign=middle;fontFamily=Helvetica;fontSize=12;fontStyle=1;labelBackgroundColor=none;" parent="U8FCyloAR51hrHltptfH-7" vertex="1">
          <mxGeometry x="105" y="30" width="100" height="60" as="geometry" />
        </mxCell>
        <mxCell id="U8FCyloAR51hrHltptfH-9" value="displayRequestList" style="strokeWidth=2;html=1;shape=mxgraph.flowchart.terminator;whiteSpace=wrap;align=center;verticalAlign=middle;fontFamily=Helvetica;fontSize=12;fontStyle=1;labelBackgroundColor=none;" parent="U8FCyloAR51hrHltptfH-7" vertex="1">
          <mxGeometry x="300" y="30" width="140" height="60" as="geometry" />
        </mxCell>
        <mxCell id="U8FCyloAR51hrHltptfH-11" value="data handler" style="swimlane;startSize=20;horizontal=0;html=1;align=center;verticalAlign=middle;fontFamily=Helvetica;fontSize=12;fontStyle=1;labelBackgroundColor=none;" parent="U8FCyloAR51hrHltptfH-1" vertex="1">
          <mxGeometry y="260" width="470" height="120" as="geometry" />
        </mxCell>
        <mxCell id="U8FCyloAR51hrHltptfH-12" value="returnMatchingRequest" style="strokeWidth=2;html=1;shape=mxgraph.flowchart.terminator;whiteSpace=wrap;align=center;verticalAlign=middle;fontFamily=Helvetica;fontSize=12;fontStyle=1;labelBackgroundColor=none;" parent="U8FCyloAR51hrHltptfH-11" vertex="1">
          <mxGeometry x="64.38" y="40" width="181.25" height="50" as="geometry" />
        </mxCell>
        <mxCell id="U8FCyloAR51hrHltptfH-19" style="edgeStyle=orthogonalEdgeStyle;rounded=0;orthogonalLoop=1;jettySize=auto;html=1;entryX=0.5;entryY=0;entryDx=0;entryDy=0;entryPerimeter=0;labelBackgroundColor=none;fontColor=default;" parent="U8FCyloAR51hrHltptfH-1" source="U8FCyloAR51hrHltptfH-5" target="U8FCyloAR51hrHltptfH-8" edge="1">
          <mxGeometry relative="1" as="geometry" />
        </mxCell>
        <mxCell id="U8FCyloAR51hrHltptfH-21" style="edgeStyle=orthogonalEdgeStyle;rounded=0;orthogonalLoop=1;jettySize=auto;html=1;entryX=0.5;entryY=1;entryDx=0;entryDy=0;entryPerimeter=0;exitX=1;exitY=0.5;exitDx=0;exitDy=0;exitPerimeter=0;labelBackgroundColor=none;fontColor=default;" parent="U8FCyloAR51hrHltptfH-1" source="U8FCyloAR51hrHltptfH-12" target="U8FCyloAR51hrHltptfH-9" edge="1">
          <mxGeometry relative="1" as="geometry">
            <mxPoint x="309.33333333333326" y="330" as="sourcePoint" />
            <mxPoint x="470" y="260" as="targetPoint" />
          </mxGeometry>
        </mxCell>
        <mxCell id="U8FCyloAR51hrHltptfH-22" style="edgeStyle=orthogonalEdgeStyle;rounded=0;orthogonalLoop=1;jettySize=auto;html=1;entryX=0.5;entryY=1;entryDx=0;entryDy=0;labelBackgroundColor=none;fontColor=default;" parent="U8FCyloAR51hrHltptfH-1" source="U8FCyloAR51hrHltptfH-9" target="U8FCyloAR51hrHltptfH-6" edge="1">
          <mxGeometry relative="1" as="geometry" />
        </mxCell>
        <mxCell id="MdqGygTj4dl-tAXQV5Xk-3" style="edgeStyle=orthogonalEdgeStyle;rounded=0;orthogonalLoop=1;jettySize=auto;html=1;labelBackgroundColor=none;fontColor=default;" edge="1" parent="U8FCyloAR51hrHltptfH-1" source="U8FCyloAR51hrHltptfH-8" target="U8FCyloAR51hrHltptfH-12">
          <mxGeometry relative="1" as="geometry" />
        </mxCell>
      </root>
    </mxGraphModel>
  </diagram>
  <diagram id="vgQS-qe3Y2YeGqGjmVNo" name="Page-8">
    <mxGraphModel dx="2970" dy="0" grid="1" gridSize="10" guides="1" tooltips="1" connect="1" arrows="1" fold="1" page="1" pageScale="1" pageWidth="850" pageHeight="1100" math="0" shadow="0">
      <root>
        <mxCell id="0" />
        <mxCell id="1" parent="0" />
        <mxCell id="nmiLEYHpjGmyntLw-RkM-1" value="&lt;font data-font-src=&quot;https://fonts.googleapis.com/css?family=vazirmatn&quot; face=&quot;vazirmatn&quot;&gt;امتیاز و نظر دادن به عملکرد درخواست&lt;/font&gt;" style="swimlane;childLayout=stackLayout;resizeParent=1;resizeParentMax=0;horizontal=1;startSize=20;horizontalStack=0;html=1;align=center;verticalAlign=middle;fontFamily=Helvetica;fontSize=12;fontStyle=1;labelBackgroundColor=none;" parent="1" vertex="1">
          <mxGeometry x="-510" y="1190" width="940" height="380" as="geometry" />
        </mxCell>
        <mxCell id="nmiLEYHpjGmyntLw-RkM-2" value="client" style="swimlane;startSize=20;horizontal=0;html=1;align=center;verticalAlign=middle;fontFamily=Helvetica;fontSize=12;fontStyle=1;labelBackgroundColor=none;" parent="nmiLEYHpjGmyntLw-RkM-1" vertex="1">
          <mxGeometry y="20" width="940" height="120" as="geometry" />
        </mxCell>
        <mxCell id="nmiLEYHpjGmyntLw-RkM-3" value="updateRequest" style="strokeWidth=2;html=1;shape=mxgraph.flowchart.terminator;whiteSpace=wrap;align=center;verticalAlign=middle;fontFamily=Helvetica;fontSize=12;fontStyle=1;labelBackgroundColor=none;" parent="nmiLEYHpjGmyntLw-RkM-2" vertex="1">
          <mxGeometry x="160" y="20" width="100" height="60" as="geometry" />
        </mxCell>
        <mxCell id="nmiLEYHpjGmyntLw-RkM-19" value="" style="ellipse;html=1;shape=startState;align=center;verticalAlign=middle;fontFamily=Helvetica;fontSize=12;fontStyle=1;labelBackgroundColor=none;" parent="nmiLEYHpjGmyntLw-RkM-2" vertex="1">
          <mxGeometry x="37.5" y="35" width="30" height="30" as="geometry" />
        </mxCell>
        <mxCell id="nmiLEYHpjGmyntLw-RkM-22" style="edgeStyle=orthogonalEdgeStyle;rounded=0;orthogonalLoop=1;jettySize=auto;html=1;entryX=0;entryY=0.5;entryDx=0;entryDy=0;entryPerimeter=0;labelBackgroundColor=none;fontColor=default;" parent="nmiLEYHpjGmyntLw-RkM-2" source="nmiLEYHpjGmyntLw-RkM-19" target="nmiLEYHpjGmyntLw-RkM-3" edge="1">
          <mxGeometry relative="1" as="geometry" />
        </mxCell>
        <mxCell id="nmiLEYHpjGmyntLw-RkM-17" value="" style="ellipse;html=1;shape=endState;align=center;verticalAlign=middle;fontFamily=Helvetica;fontSize=12;fontStyle=1;labelBackgroundColor=none;" parent="nmiLEYHpjGmyntLw-RkM-2" vertex="1">
          <mxGeometry x="635" y="35" width="30" height="30" as="geometry" />
        </mxCell>
        <mxCell id="nmiLEYHpjGmyntLw-RkM-4" value="system manager" style="swimlane;startSize=20;horizontal=0;html=1;align=center;verticalAlign=middle;fontFamily=Helvetica;fontSize=12;fontStyle=1;labelBackgroundColor=none;" parent="nmiLEYHpjGmyntLw-RkM-1" vertex="1">
          <mxGeometry y="140" width="940" height="120" as="geometry" />
        </mxCell>
        <mxCell id="nmiLEYHpjGmyntLw-RkM-5" value="saveData" style="strokeWidth=2;html=1;shape=mxgraph.flowchart.terminator;whiteSpace=wrap;align=center;verticalAlign=middle;fontFamily=Helvetica;fontSize=12;fontStyle=1;labelBackgroundColor=none;" parent="nmiLEYHpjGmyntLw-RkM-4" vertex="1">
          <mxGeometry x="150" y="30" width="100" height="60" as="geometry" />
        </mxCell>
        <mxCell id="nmiLEYHpjGmyntLw-RkM-6" value="notify Feedback" style="strokeWidth=2;html=1;shape=mxgraph.flowchart.terminator;whiteSpace=wrap;align=center;verticalAlign=middle;fontFamily=Helvetica;fontSize=12;fontStyle=1;labelBackgroundColor=none;" parent="nmiLEYHpjGmyntLw-RkM-4" vertex="1">
          <mxGeometry x="322.25" y="30" width="130" height="60" as="geometry" />
        </mxCell>
        <mxCell id="nmiLEYHpjGmyntLw-RkM-7" value="confirmFeedback" style="strokeWidth=2;html=1;shape=mxgraph.flowchart.terminator;whiteSpace=wrap;align=center;verticalAlign=middle;fontFamily=Helvetica;fontSize=12;fontStyle=1;labelBackgroundColor=none;" parent="nmiLEYHpjGmyntLw-RkM-4" vertex="1">
          <mxGeometry x="580" y="30" width="140" height="60" as="geometry" />
        </mxCell>
        <mxCell id="nmiLEYHpjGmyntLw-RkM-8" value="data handler" style="swimlane;startSize=20;horizontal=0;html=1;align=center;verticalAlign=middle;fontFamily=Helvetica;fontSize=12;fontStyle=1;labelBackgroundColor=none;" parent="nmiLEYHpjGmyntLw-RkM-1" vertex="1">
          <mxGeometry y="260" width="940" height="120" as="geometry" />
        </mxCell>
        <mxCell id="nmiLEYHpjGmyntLw-RkM-9" value="confirmSubmission" style="strokeWidth=2;html=1;shape=mxgraph.flowchart.terminator;whiteSpace=wrap;align=center;verticalAlign=middle;fontFamily=Helvetica;fontSize=12;fontStyle=1;labelBackgroundColor=none;" parent="nmiLEYHpjGmyntLw-RkM-8" vertex="1">
          <mxGeometry x="130" y="30" width="140" height="60" as="geometry" />
        </mxCell>
        <mxCell id="nmiLEYHpjGmyntLw-RkM-11" style="edgeStyle=orthogonalEdgeStyle;rounded=0;orthogonalLoop=1;jettySize=auto;html=1;exitX=0.5;exitY=1;exitDx=0;exitDy=0;exitPerimeter=0;entryX=0.5;entryY=0;entryDx=0;entryDy=0;entryPerimeter=0;fontFamily=Helvetica;fontSize=12;fontColor=default;fontStyle=1;labelBackgroundColor=none;" parent="nmiLEYHpjGmyntLw-RkM-1" source="nmiLEYHpjGmyntLw-RkM-5" target="nmiLEYHpjGmyntLw-RkM-9" edge="1">
          <mxGeometry relative="1" as="geometry" />
        </mxCell>
        <mxCell id="nmiLEYHpjGmyntLw-RkM-18" style="edgeStyle=orthogonalEdgeStyle;rounded=0;orthogonalLoop=1;jettySize=auto;html=1;exitX=0.5;exitY=0;exitDx=0;exitDy=0;exitPerimeter=0;fontFamily=Helvetica;fontSize=12;fontColor=default;fontStyle=1;labelBackgroundColor=none;" parent="nmiLEYHpjGmyntLw-RkM-1" source="nmiLEYHpjGmyntLw-RkM-7" target="nmiLEYHpjGmyntLw-RkM-17" edge="1">
          <mxGeometry relative="1" as="geometry">
            <mxPoint x="520.5" y="70" as="targetPoint" />
          </mxGeometry>
        </mxCell>
        <mxCell id="a-Xbgweuy93oiLawgrTD-4" style="edgeStyle=orthogonalEdgeStyle;rounded=0;orthogonalLoop=1;jettySize=auto;html=1;labelBackgroundColor=none;fontColor=default;" edge="1" parent="nmiLEYHpjGmyntLw-RkM-1" source="nmiLEYHpjGmyntLw-RkM-3" target="nmiLEYHpjGmyntLw-RkM-5">
          <mxGeometry relative="1" as="geometry">
            <Array as="points">
              <mxPoint x="200" y="120" />
              <mxPoint x="200" y="120" />
            </Array>
          </mxGeometry>
        </mxCell>
        <mxCell id="a-Xbgweuy93oiLawgrTD-6" style="edgeStyle=orthogonalEdgeStyle;rounded=0;orthogonalLoop=1;jettySize=auto;html=1;entryX=0.5;entryY=1;entryDx=0;entryDy=0;entryPerimeter=0;labelBackgroundColor=none;fontColor=default;" edge="1" parent="nmiLEYHpjGmyntLw-RkM-1" source="nmiLEYHpjGmyntLw-RkM-9" target="nmiLEYHpjGmyntLw-RkM-6">
          <mxGeometry relative="1" as="geometry" />
        </mxCell>
        <mxCell id="nmiLEYHpjGmyntLw-RkM-15" style="edgeStyle=orthogonalEdgeStyle;rounded=0;orthogonalLoop=1;jettySize=auto;html=1;exitX=1;exitY=0.5;exitDx=0;exitDy=0;exitPerimeter=0;fontFamily=Helvetica;fontSize=12;fontColor=default;fontStyle=1;labelBackgroundColor=none;" parent="1" source="nmiLEYHpjGmyntLw-RkM-6" target="nmiLEYHpjGmyntLw-RkM-14" edge="1">
          <mxGeometry relative="1" as="geometry">
            <mxPoint x="-164.5" y="1680" as="targetPoint" />
          </mxGeometry>
        </mxCell>
        <mxCell id="a-Xbgweuy93oiLawgrTD-1" value="manager" style="swimlane;startSize=20;horizontal=0;html=1;align=center;verticalAlign=middle;fontFamily=Helvetica;fontSize=12;fontStyle=1;labelBackgroundColor=none;" vertex="1" parent="1">
          <mxGeometry x="-510" y="1570" width="940" height="120" as="geometry" />
        </mxCell>
        <mxCell id="nmiLEYHpjGmyntLw-RkM-14" value="acknowledgeFeedback" style="strokeWidth=2;html=1;shape=mxgraph.flowchart.terminator;whiteSpace=wrap;align=center;verticalAlign=middle;fontFamily=Helvetica;fontSize=12;fontStyle=1;labelBackgroundColor=none;" parent="a-Xbgweuy93oiLawgrTD-1" vertex="1">
          <mxGeometry x="400" y="35" width="154.5" height="50" as="geometry" />
        </mxCell>
        <mxCell id="a-Xbgweuy93oiLawgrTD-5" style="edgeStyle=orthogonalEdgeStyle;rounded=0;orthogonalLoop=1;jettySize=auto;html=1;entryX=0.5;entryY=1;entryDx=0;entryDy=0;entryPerimeter=0;labelBackgroundColor=none;fontColor=default;" edge="1" parent="1" source="nmiLEYHpjGmyntLw-RkM-14" target="nmiLEYHpjGmyntLw-RkM-7">
          <mxGeometry relative="1" as="geometry" />
        </mxCell>
      </root>
    </mxGraphModel>
  </diagram>
</mxfile>
